<?xml version="1.0" encoding="UTF-8"?>
<svg xmlns="http://www.w3.org/2000/svg" xmlns:xlink="http://www.w3.org/1999/xlink" width="512pt" height="512pt" viewBox="0 0 512 512" version="1.1">
<g id="surface1">
<path style=" stroke:none;fill-rule:nonzero;fill:#5B5B5B;fill-opacity:1;" d="M 144 64 L 144 176 L 112 176 C 85.6875 176 64 197.6875 64 224 L 64 384 L 144 384 L 144 448 L 368 448 L 368 384 L 448 384 L 448 224 C 448 197.6875 426.3125 176 400 176 L 368 176 L 368 64 Z M 176 96 L 336 96 L 336 176 L 176 176 Z M 112 208 L 400 208 C 409.0625 208 416 214.9375 416 224 L 416 352 L 368 352 L 368 288 L 144 288 L 144 352 L 96 352 L 96 224 C 96 214.9375 102.9375 208 112 208 Z M 128 224 C 119.1875 224 112 231.1875 112 240 C 112 248.8125 119.1875 256 128 256 C 136.8125 256 144 248.8125 144 240 C 144 231.1875 136.8125 224 128 224 Z M 176 320 L 336 320 L 336 416 L 176 416 Z "/>
</g>
</svg>
