<?xml version="1.0" encoding="UTF-8"?>
<svg xmlns="http://www.w3.org/2000/svg" xmlns:xlink="http://www.w3.org/1999/xlink" width="512pt" height="512pt" viewBox="0 0 512 512" version="1.1">
<g id="surface1">
<path style=" stroke:none;fill-rule:nonzero;fill:#5B5B5B;fill-opacity:1;" d="M 96 48 L 96 464 L 284.5 464 C 308 493.25 343.6875 512 384 512 C 454.5 512 512 454.5 512 384 C 512 324.625 471 274.875 416 260.5 L 416 153.5 L 310.5 48 Z M 128 80 L 288 80 L 288 176 L 384 176 L 384 256 C 361.5625 256 340.375 261.8125 322 272 L 176 272 L 176 304 L 284.5 304 C 276.8125 313.5625 270.1875 324.5 265.5 336 L 176 336 L 176 368 L 257 368 C 256.3125 373.3125 256 378.5625 256 384 C 256 401.0625 259.375 417.125 265.5 432 L 128 432 Z M 320 102.5 L 361.5 144 L 320 144 Z M 176 208 L 176 240 L 336 240 L 336 208 Z M 384 288 C 437.1875 288 480 330.8125 480 384 C 480 437.1875 437.1875 480 384 480 C 330.8125 480 288 437.1875 288 384 C 288 330.8125 330.8125 288 384 288 Z M 368 320 L 368 368 L 320 368 L 320 400 L 368 400 L 368 448 L 400 448 L 400 400 L 448 400 L 448 368 L 400 368 L 400 320 Z "/>
</g>
</svg>
