<?xml version="1.0" encoding="UTF-8"?>
<svg xmlns="http://www.w3.org/2000/svg" xmlns:xlink="http://www.w3.org/1999/xlink" width="512pt" height="512pt" viewBox="0 0 512 512" version="1.1">
<g id="surface1">
<path style=" stroke:none;fill-rule:nonzero;fill:#5B5B5B;fill-opacity:1;" d="M 80 48 L 80 445 L 92.5 447.5 L 284.5 487.5 L 304 491.5 L 304 448 L 400 448 L 400 247 L 427.5 219.5 L 432 214.5 L 432 48 Z M 226 80 L 400 80 L 400 201 L 372.5 228.5 L 368 233.5 L 368 416 L 304 416 L 304 273.5 L 299.5 268.5 L 272 241 L 272 91.5 Z M 112 84.5 L 240 116.5 L 240 254.5 L 244.5 259.5 L 272 287 L 272 452.5 L 112 419 Z "/>
</g>
</svg>
