<?xml version="1.0" encoding="UTF-8"?>
<svg xmlns="http://www.w3.org/2000/svg" xmlns:xlink="http://www.w3.org/1999/xlink" width="512pt" height="512pt" viewBox="0 0 512 512" version="1.1">
<g id="surface1">
<path style=" stroke:none;fill-rule:nonzero;fill:#5B5B5B;fill-opacity:1;" d="M 80 80 L 80 432 L 319.5 432 L 287.5 400 L 176 400 L 176 288 L 226.5 288 L 220 258 L 220 256 L 144 256 L 144 400 L 112 400 L 112 112 L 160 112 L 160 208 L 352 208 L 352 118.5 L 400 166.5 L 400 287.5 L 432 319.5 L 432 153.5 L 358.5 80 Z M 192 112 L 256 112 L 256 144 L 288 144 L 288 112 L 320 112 L 320 176 L 192 176 Z M 251.5 251.5 L 256.5 275 L 267.5 331 L 268.5 336 L 272 339.5 L 430.5 497.5 C 448.9375 515.9375 479.0625 515.9375 497.5 497.5 C 515.9375 479.0625 515.9375 448.9375 497.5 430.5 L 339.5 272 L 336 268.5 L 331 267.5 L 275 256.5 Z M 292.5 292.5 L 320 298 L 475 453 C 482.125 460.125 482.125 467.875 475 475 C 467.875 482.125 460.125 482.125 453 475 L 298 320 Z "/>
</g>
</svg>
