<?xml version="1.0" encoding="UTF-8"?>
<svg xmlns="http://www.w3.org/2000/svg" xmlns:xlink="http://www.w3.org/1999/xlink" width="512pt" height="512pt" viewBox="0 0 512 512" version="1.1">
<g id="surface1">
<path style=" stroke:none;fill-rule:nonzero;fill:#5B5B5B;fill-opacity:1;" d="M 256 64 C 189.3125 64 130.4375 97.8125 96 149.5 L 96 96 L 64 96 L 64 208 L 176 208 L 176 176 L 118 176 C 145.625 128.3125 196.75 96 256 96 C 344.5625 96 416 167.4375 416 256 C 416 344.5625 344.5625 416 256 416 C 167.4375 416 96 344.5625 96 256 L 64 256 C 64 361.875 150.125 448 256 448 C 361.875 448 448 361.875 448 256 C 448 150.125 361.875 64 256 64 Z M 240 128 L 240 272 L 352 272 L 352 240 L 272 240 L 272 128 Z "/>
</g>
</svg>
