<?xml version="1.0" encoding="UTF-8"?>
<svg xmlns="http://www.w3.org/2000/svg" xmlns:xlink="http://www.w3.org/1999/xlink" width="512pt" height="512pt" viewBox="0 0 512 512" version="1.1">
<g id="surface1">
<path style=" stroke:none;fill-rule:nonzero;fill:#5B5B5B;fill-opacity:1;" d="M 64 80 L 64 432 L 265.5 432 C 284.625 478.6875 330.5625 512 384 512 C 454.5 512 512 454.5 512 384 C 512 336.8125 486.1875 295.6875 448 273.5 L 448 80 Z M 96 112 L 416 112 L 416 144 L 96 144 Z M 96 176 L 416 176 L 416 260.5 C 405.6875 257.8125 395.125 256 384 256 C 351.75 256 322.0625 268.1875 299.5 288 L 208 288 L 208 320 L 273.5 320 C 262.5 338.875 256 360.6875 256 384 C 256 389.4375 256.3125 394.6875 257 400 L 96 400 Z M 144 224 L 144 256 L 176 256 L 176 224 Z M 208 224 L 208 256 L 368 256 L 368 224 Z M 144 288 L 144 320 L 176 320 L 176 288 Z M 384 288 C 437.1875 288 480 330.8125 480 384 C 480 437.1875 437.1875 480 384 480 C 330.8125 480 288 437.1875 288 384 C 288 330.8125 330.8125 288 384 288 Z M 347.5 324.5 L 324.5 347.5 L 361 384 L 324.5 420.5 L 347.5 443.5 L 384 407 L 420.5 443.5 L 443.5 420.5 L 407 384 L 443.5 347.5 L 420.5 324.5 L 384 361 Z "/>
</g>
</svg>
