<?xml version="1.0" encoding="UTF-8"?>
<svg xmlns="http://www.w3.org/2000/svg" xmlns:xlink="http://www.w3.org/1999/xlink" width="512pt" height="512pt" viewBox="0 0 512 512" version="1.1">
<g id="surface1">
<path style=" stroke:none;fill-rule:nonzero;fill:#5B5B5B;fill-opacity:1;" d="M 256 64 C 150.125 64 64 150.125 64 256 C 64 305.125 82.5 350 113 384 L 80 384 L 80 416 L 176 416 L 176 320 L 144 320 L 144 370 C 114.5 341 96 300.6875 96 256 C 96 167.4375 167.4375 96 256 96 Z M 292 67.5 L 283 98.5 C 293.5625 100.3125 304.0625 103.125 314 107 L 322.5 76 C 312.5 72.3125 302.5 69.5 292 67.5 Z M 336 96 L 336 192 L 368 192 L 368 142 C 397.5625 170.9375 416 211.1875 416 256 C 416 344.5625 344.5625 416 256 416 L 256 448 C 303.0625 448 346.0625 430.75 379.5 402.5 L 456.5 479.5 L 479.5 456.5 L 402.5 379.5 C 430.75 346.0625 448 303.0625 448 256 C 448 206.75 429.125 161.9375 398.5 128 L 432 128 L 432 96 Z M 198 405 L 189.5 436 C 199.5 439.6875 209.5 442.5 220 444.5 L 229 413.5 C 218.4375 411.6875 207.9375 408.875 198 405 Z "/>
</g>
</svg>
