<?xml version="1.0" encoding="UTF-8"?>
<svg xmlns="http://www.w3.org/2000/svg" xmlns:xlink="http://www.w3.org/1999/xlink" width="512pt" height="512pt" viewBox="0 0 512 512" version="1.1">
<g id="surface1">
<path style=" stroke:none;fill-rule:nonzero;fill:#5B5B5B;fill-opacity:1;" d="M 314.5 69 C 302.125 70.5 291.125 79.25 287.5 92 L 245 241 L 191.5 256.5 C 187.6875 229.375 164.125 208 136 208 C 105.25 208 80 233.25 80 264 C 80 294.75 105.25 320 136 320 C 156.625 320 174.8125 308.3125 184.5 291.5 L 234.5 277.5 L 220.5 327.5 C 203.6875 337.1875 192 355.375 192 376 C 192 406.75 217.25 432 248 432 C 278.75 432 304 406.75 304 376 C 304 347.875 282.625 324.3125 255.5 320.5 L 327 70 C 322.75 68.8125 318.625 68.5 314.5 69 Z M 442 185 L 302.5 224.5 L 292 261 L 420 224.5 C 437 219.625 446.875 202 442 185 Z M 136 240 C 149.4375 240 160 250.5625 160 264 C 160 277.4375 149.4375 288 136 288 C 122.5625 288 112 277.4375 112 264 C 112 250.5625 122.5625 240 136 240 Z M 248 352 C 261.4375 352 272 362.5625 272 376 C 272 389.4375 261.4375 400 248 400 C 234.5625 400 224 389.4375 224 376 C 224 362.5625 234.5625 352 248 352 Z "/>
</g>
</svg>
