<?xml version="1.0" encoding="UTF-8"?>
<svg xmlns="http://www.w3.org/2000/svg" xmlns:xlink="http://www.w3.org/1999/xlink" width="512pt" height="512pt" viewBox="0 0 512 512" version="1.1">
<g id="surface1">
<path style=" stroke:none;fill-rule:nonzero;fill:#5B5B5B;fill-opacity:1;" d="M 240 64 C 231.625 64 223.0625 66.9375 217 73 C 210.9375 79.0625 208 87.625 208 96 L 208 112 L 112 112 L 112 144 L 128 144 L 128 400 C 128 426.3125 149.6875 448 176 448 L 368 448 C 394.3125 448 416 426.3125 416 400 L 416 144 L 432 144 L 432 112 L 336 112 L 336 96 C 336 87.625 333.0625 79.0625 327 73 C 320.9375 66.9375 312.375 64 304 64 Z M 240 96 L 304 96 L 304 112 L 240 112 Z M 160 144 L 384 144 L 384 400 C 384 408.875 376.875 416 368 416 L 176 416 C 167.125 416 160 408.875 160 400 Z M 192 192 L 192 368 L 224 368 L 224 192 Z M 256 192 L 256 368 L 288 368 L 288 192 Z M 320 192 L 320 368 L 352 368 L 352 192 Z "/>
</g>
</svg>
